<svg xmlns:dc="http://purl.org/dc/elements/1.1/" xmlns:rdf="http://www.w3.org/1999/02/22-rdf-syntax-ns#" xmlns:svg="http://www.w3.org/2000/svg" xmlns="http://www.w3.org/2000/svg" xmlns:xlink="http://www.w3.org/1999/xlink" id="svgzx" viewBox="0 0 230 230" height="230px" width="230px" version="1.1">
   <g id="pathzx" aria-label="a_" transform="translate(10 20) translate(0 0) scale(4.2) translate(-488.13724 38.088)"> <path class="c1" d="M95.80975,105.78136c-0.26545,0.6845-1.91132,3.40824-4.07023,6.37474 c-2.82035,3.87535-6.34931,8.06814-9.13189,8.50942c-0.52673,0.49675-0.32697,1.79578,0.6396,2.56433 c1.38326,1.09985,3.26188,0.80183,4.72608-0.01726c0.77299-0.6049,1.72713-1.3842,2.62528-2.25877 c0.32995-0.32129,0.59946-0.69527,0.9251-1.02135c2.18553-2.18857,4.21217-4.47899,4.7547-5.32489 C97.31557,112.49457,96.43046,105.84509,95.80975,105.78136z" transform="translate(413.478835 -125.19935)" stroke-width="0" stroke-linejoin="miter" stroke-miterlimit="2" fill="#242021" stroke="#242021"></path> <path class="c1" d="M89.87869,104.17627c0.24463,0.59414,1.03838,1.07972,2.16808,1.07972 c0.29612,0,0.62328-0.06977,0.93191-0.16152c0.34548-0.1027,0.67631-0.24211,0.93027-0.47961 c0.2765-0.25857,0.54798-0.82101,0.75024-1.44003c0.34241-1.04797,0.5575-2.27112,0.55338-2.50983 c-0.02934-0.41365-0.15862-1.03341-0.59879-1.50266c-1.4182-1.51189-3.34428-0.52412-3.29202-0.02659 c0.63452,0.83244,0.7999,2.45957,0.50127,3.3125C91.4456,103.37021,90.55614,104.10323,89.87869,104.17627z" transform="translate(413.478835 -125.19935)" stroke-width="0" stroke-linejoin="miter" stroke-miterlimit="2" fill="#242021" stroke="#242021"></path> <path class="c2" d="M94.73454,103.54436c0.24098,0.03684,1.02379-1.02624,1.13421-2.62733 c0.05324-0.77196,0.16347-1.3982-0.08518-1.99662c-1.23951-2.98315-3.91667-4.04703-6.76998-4.03552 c-7.90592,0.03188-14.85814,13.86536-14.32654,22.56825c0.26624,4.35862,3.21679,7.69299,7.92465,7.74742 c2.30333,0.02663,4.08555-0.9901,5.36162-1.98796c-1.7547,0.50276-3.99159,0.49632-5.07253-1.68984 c-0.12318-0.24912-0.2216-0.52307-0.29316-0.85723c-0.45094-2.10583-0.07281-5.02391,0.80738-8.2057 c0.21079-0.762,0.508-1.64868,0.7632-2.41687c1.18851-3.57757,3.94238-9.21902,7.14355-10.90722 c0.74283-0.39175,1.47243-0.45331,2.20374-0.20853C94.73785,99.33301,95.40144,100.63139,94.73454,103.54436z" transform="translate(413.478835 -125.19935)" stroke-width="0" stroke-linejoin="miter" stroke-miterlimit="2" fill="#242021" stroke="#242021"></path> <path class="c1" d="M107.19053,131.27414c7.18635-3.47763,12.89794-11.38087,15.66589-18.95744 c2.28798-7.07195,2.30891-17.09962-3.13885-21.76913c-2.9486-2.52737-6.8194-2.54573-8.53539,0.01886 c2.09576,0.13427,4.56482,1.7606,6.03566,5.80769c1.91326,5.26441,0.73312,11.63846-0.71205,16.27075 c-2.42811,7.78301-9.16042,15.17322-16.45786,15.14919c-0.57104-0.00188-1.15926-0.06433-1.52863-0.14365 c-0.57803-0.10078-1.01706-0.25877-1.30173-0.38667c-0.43021,0.92494,1.00813,3.71654,2.57989,4.29642 C102.41706,132.52664,105.43755,131.8889,107.19053,131.27414z" transform="translate(413.478835 -125.19935)" stroke-width="0" stroke-linejoin="miter" stroke-miterlimit="2" fill="#242021" stroke="#242021"></path> <path class="c2" d="M111.18217,90.56644c0.25843-1.15139,2.13019-3.45509,5.47405-3.45509 c2.84074,0,5.79556,1.35542,7.51231,5.43576c1.92869,4.58406,1.4707,11.99074-1.31211,19.76959 c2.59405-10.05144,0.5276-18.24868-4.17171-21.26709C116.13033,89.40891,113.00626,89.29016,111.18217,90.56644z" transform="translate(413.478835 -125.19935)" stroke-width="0" stroke-linejoin="miter" stroke-miterlimit="2" fill="#242021" stroke="#242021"></path> <path class="c2" d="M100.65521,112.08993c1.87494-4.99705,3.82463-9.72675,3.82463-12.56078 c0-2.99171-3.0907-4.56967-6.23573-4.56967c-0.87514,0-1.65614,0.08725-1.95722,0.28809 c0.20981,0.79944-0.00153,1.9623-0.5042,3.67285c-0.13675,0.46535-0.94843,2.80068-1.87375,5.69444 c-0.75771,2.36963-1.59525,5.10918-2.1703,7.54125c-0.85986,3.63667-1.16071,6.425-1.14005,8.79772 c0.02433,2.7931,0.52827,4.87836,1.4511,6.72569c1.54843,3.09966,4.85691,4.79533,8.88057,4.79533 c2.08956,0,4.384-0.4183,6.26026-1.2007c-3.24129,0.84607-6.45351-0.06671-7.96799-2.21106 c-0.29754-0.42128-0.52116-0.89175-0.70324-1.41267C97.02106,123.3639,99.15835,116.07933,100.65521,112.08993z" transform="translate(413.478835 -125.19935)" stroke-width="0" stroke-linejoin="miter" stroke-miterlimit="2" fill="#242021" stroke="#242021"></path> <radialGradient id="b01281ee-8752-409d-8382-d978c5efd270" cx="108.02949" cy="103.865" r="29.99143" gradientUnits="userSpaceOnUse" transform="translate(413.478835 -125.19935)"> <stop offset="0.53965" style="stop-color:#000000;stop-opacity:0"></stop> <stop offset="0.73373" style="stop-color:#000000"></stop> </radialGradient> <path class="highlight" fill="url(#b01281ee-8752-409d-8382-d978c5efd270)" d="M111.18217,90.56644c0.25843-1.15139,2.13019-3.45509,5.47405-3.45509 c2.84074,0,5.79556,1.35542,7.51231,5.43576c1.92869,4.58406,1.4707,11.99074-1.31211,19.76959 c2.59405-10.05144,0.5276-18.24868-4.17171-21.26709C116.13033,89.40891,113.00626,89.29016,111.18217,90.56644z" transform="translate(413.478835 -125.19935)" stroke-width="0" stroke-linejoin="miter" stroke-miterlimit="2" opacity="0.72"></path> <linearGradient id="8a6b7240-f7ee-4fd3-99e6-c17382439c28" gradientUnits="userSpaceOnUse" x1="94.53016" y1="140.70293" x2="108.21322" y2="87.97753"> <stop offset="0.13099" style="stop-color:#000000"></stop> <stop offset="0.22072" style="stop-color:#000000;stop-opacity:0.68377"></stop> <stop offset="0.41474" style="stop-color:#000000;stop-opacity:0"></stop> <stop offset="0.68078" style="stop-color:#000000;stop-opacity:0"></stop> <stop offset="0.92031" style="stop-color:#000000"></stop> </linearGradient> <path class="highlight" fill="url(#8a6b7240-f7ee-4fd3-99e6-c17382439c28)" d="M100.65521,112.08993c1.87494-4.99705,3.82463-9.72675,3.82463-12.56078 c0-2.99171-3.0907-4.56967-6.23573-4.56967c-0.87514,0-1.65614,0.08725-1.95722,0.28809 c0.20981,0.79944-0.00153,1.9623-0.5042,3.67285c-0.13675,0.46535-0.94843,2.80068-1.87375,5.69444 c-0.75771,2.36963-1.59525,5.10918-2.1703,7.54125c-0.85986,3.63667-1.16071,6.425-1.14005,8.79772 c0.02433,2.7931,0.52827,4.87836,1.4511,6.72569c1.54843,3.09966,4.85691,4.79533,8.88057,4.79533 c2.08956,0,4.384-0.4183,6.26026-1.2007c-3.24129,0.84607-6.45351-0.06671-7.96799-2.21106 c-0.29754-0.42128-0.52116-0.89175-0.70324-1.41267C97.02106,123.3639,99.15835,116.07933,100.65521,112.08993z" transform="translate(413.478835 -125.19935)" stroke-width="0" stroke-linejoin="miter" stroke-miterlimit="2" opacity="0.72"></path> <linearGradient id="6b63d810-38ec-49ac-8136-062420db3c4e" gradientUnits="userSpaceOnUse" x1="98.54878" y1="72.1088" x2="72.04409" y2="142.37704"> <stop offset="0.27883" style="stop-color:#000000"></stop> <stop offset="0.33459" style="stop-color:#000000;stop-opacity:0.68377"></stop> <stop offset="0.45514" style="stop-color:#000000;stop-opacity:0"></stop> <stop offset="0.63842" style="stop-color:#000000;stop-opacity:0"></stop> <stop offset="0.77772" style="stop-color:#000000"></stop> </linearGradient> <path class="highlight" fill="url(#6b63d810-38ec-49ac-8136-062420db3c4e)" d="M84.17824,110.04297c1.18848-3.57758,3.94238-9.21902,7.14355-10.90723 c0.7428-0.39175,1.47241-0.45331,2.20374-0.20853c0.84015,0.28122,1.41673,0.98937,1.46959,2.36822 c0.41272-1.23807,0.70961-2.10967,0.78761-2.37502c-1.23938-2.98346-3.91626-4.04703-6.76917-4.03552 c-7.90588,0.03189-14.85809,13.86536-14.32654,22.56827c0.26624,4.35861,3.2168,7.69296,7.92468,7.74741 c2.30334,0.02664,4.08557-0.99008,5.36163-1.98795c-1.7547,0.50275-3.99164,0.49631-5.07257-1.68985 c-0.12317-0.24911-0.22156-0.52307-0.29309-0.85724c-0.45099-2.10583-0.07288-5.0239,0.80737-8.20569 C83.62581,111.69785,83.92299,110.81116,84.17824,110.04297z" transform="translate(413.478835 -125.19935)" stroke-width="0" stroke-linejoin="miter" stroke-miterlimit="2" opacity="0.72"></path> <radialGradient id="add738ba-49a3-4cb2-8654-dd49c4a88634" cx="91.1052" cy="103.66413" r="7.37268" gradientUnits="userSpaceOnUse" transform="translate(413.478835 -125.19935)"> <stop offset="0.29388" style="stop-color:#000000;stop-opacity:0"></stop> <stop offset="0.75717" style="stop-color:#000000"></stop> </radialGradient> <path class="highlight" fill="url(#add738ba-49a3-4cb2-8654-dd49c4a88634)" d="M92.04677,105.25598c0.29614,0,0.62329-0.06976,0.93188-0.1615 c0.34552-0.10272,0.67633-0.24213,0.9303-0.47961c0.39642-1.23972,0.77563-2.38783,1.08618-3.31944 c-0.01077-0.4541-0.10991-0.98803-0.32055-1.39285c-0.17725-0.34066-0.43641-0.62888-0.79825-0.82375 c-0.32156-0.17317-0.72019-0.2751-1.08355-0.29346c-0.48676-0.0246-0.97694,0.08981-1.47099,0.35038 c0.63452,0.83243,0.79987,2.45956,0.50122,3.3125c-0.37744,0.92197-1.26685,1.65497-1.94434,1.72803 C90.12331,104.77042,90.91707,105.25598,92.04677,105.25598z" transform="translate(413.478835 -125.19935)" stroke-width="0" stroke-linejoin="miter" stroke-miterlimit="2" opacity="0.72"></path> <linearGradient id="6f741779-a557-4365-8e6a-d4b6184ff6c2" gradientUnits="userSpaceOnUse" x1="82.96074" y1="123.60636" x2="94.85484" y2="113.43882"> <stop offset="0.05056" style="stop-color:#000000"></stop> <stop offset="0.14411" style="stop-color:#000000;stop-opacity:0.68377"></stop> <stop offset="0.34638" style="stop-color:#000000;stop-opacity:0"></stop> <stop offset="0.47285" style="stop-color:#000000;stop-opacity:0"></stop> <stop offset="0.69416" style="stop-color:#000000;stop-opacity:0.60632"></stop> <stop offset="0.83786" style="stop-color:#000000"></stop> </linearGradient> <path class="highlight" fill="url(#6f741779-a557-4365-8e6a-d4b6184ff6c2)" d="M90.59865,120.95383c-0.02069-2.37234,0.28003-5.16025,1.13965-8.79605 c-2.82019,3.87494-6.34851,8.06653-9.13062,8.50775c0.07153,0.33417,0.16992,0.60812,0.29309,0.85724 c1.08093,2.1861,3.31769,2.19263,5.07245,1.68988C88.74635,122.6077,89.70045,121.82843,90.59865,120.95383z" transform="translate(413.478835 -125.19935)" stroke-width="0" stroke-linejoin="miter" stroke-miterlimit="2" opacity="0.72"></path> <linearGradient id="c226b9a9-a59e-453a-a281-2c9cec272610" gradientUnits="userSpaceOnUse" x1="128.41264" y1="74.88164" x2="97.5555" y2="147.00409"> <stop offset="0.17482" style="stop-color:#000000"></stop> <stop offset="0.26356" style="stop-color:#000000;stop-opacity:0.68377"></stop> <stop offset="0.45544" style="stop-color:#000000;stop-opacity:0"></stop> <stop offset="0.63335" style="stop-color:#000000;stop-opacity:0"></stop> <stop offset="0.82838" style="stop-color:#000000"></stop> </linearGradient> <path class="highlight" fill="url(#c226b9a9-a59e-453a-a281-2c9cec272610)" d="M118.68471,91.04962c-2.55438-1.64072-5.67847-1.75946-7.50256-0.48318 c2.09583,0.13428,4.56482,1.76062,6.03571,5.80768c1.91327,5.26443,0.73309,11.63846-0.7121,16.27075 c-2.4281,7.78302-9.1604,15.17322-16.45782,15.1492c-0.57104-0.00186-1.15924-0.06433-1.52863-0.14365 c0.18207,0.5209,0.4057,0.99139,0.70325,1.41266c1.51453,2.14435,4.72668,3.05713,7.96802,2.21106 c7.18628-3.47763,12.89795-11.38086,15.66589-18.95743C125.45045,102.26526,123.38405,94.06802,118.68471,91.04962z" transform="translate(413.478835 -125.19935)" stroke-width="0" stroke-linejoin="miter" stroke-miterlimit="2" opacity="0.9"></path> </g>
</svg>